<svg width="2050" height="2050" viewBox="0 0 2050 2050" fill="none" xmlns="http://www.w3.org/2000/svg">
<path d="M2050 0.00250244H0.00134277V2050H2050V0.00250244Z" fill="#071830"/>
<path fill-rule="evenodd" clip-rule="evenodd" d="M1025.5 227C585.948 227 229 596.297 229 1051.06C229 1505.83 585.948 1875.12 1025.5 1875.12C1465.05 1875.12 1822 1505.82 1822 1051.06C1822 596.306 1465.05 227 1025.5 227ZM1025.5 295.377C1428.62 295.377 1755.91 633.976 1755.91 1051.05C1755.91 1468.12 1428.63 1806.74 1025.5 1806.74C622.377 1806.74 295.091 1468.13 295.091 1051.05C295.091 633.986 622.368 295.377 1025.5 295.377Z" fill="#357CCF"/>
<path d="M1034.29 1127.21C1151.41 1127.21 1246.36 1028.97 1246.36 907.8C1246.36 786.625 1151.41 688.393 1034.29 688.393C917.167 688.393 822.22 786.625 822.22 907.8C822.22 1028.97 917.167 1127.21 1034.29 1127.21Z" fill="#FFEC44"/>
<path fill-rule="evenodd" clip-rule="evenodd" d="M1645.29 952.047C1668.72 1014.24 1679.17 1079.53 1679.09 1145.25C1679.09 1475.12 1383.77 1743.01 1019.96 1743.01C656.144 1743.01 360.827 1479.66 360.827 1149.79C360.827 1027.66 428.432 952.047 496.035 919.09C577.609 939.563 695.227 1022.81 766.448 1050.92C879.631 1095.58 817.151 1067.39 918.556 1116.83C986.159 1133.31 986.159 1133.31 1036.86 1133.31C1222.77 1116.83 1213.54 1126.63 1408.68 1050.92C1481.11 1022.81 1563.72 972.516 1645.29 952.047Z" fill="#357CCF"/>
<path d="M542.088 902.612C459.697 919.09 410.262 1001.48 393.783 1050.92V1248.66L465.808 1446.4H1562.87L1646.14 1182.74L1629.66 952.047C1629.66 952.047 1486.5 992.837 1427.64 992.837C1374.82 992.837 1406.52 886.134 1331.75 886.134C1256.97 886.134 1152 992.837 1085.14 992.837C1018.28 992.837 1063.98 886.133 975.672 886.133C887.368 886.133 828.194 992.837 727.964 992.837C627.733 992.837 624.48 886.133 542.088 902.612Z" fill="#357CCF"/>
</svg>
