<svg width="264" height="50" viewBox="0 0 264 50" fill="none" xmlns="http://www.w3.org/2000/svg">
<path d="M74.4832 21.8203H69.817C69.7318 21.2166 69.5578 20.6804 69.295 20.2116C69.0322 19.7358 68.6948 19.331 68.2829 18.9972C67.871 18.6634 67.3951 18.4077 66.8554 18.2301C66.3227 18.0526 65.7439 17.9638 65.1189 17.9638C63.9896 17.9638 63.0059 18.2443 62.1679 18.8054C61.3298 19.3594 60.6799 20.169 60.2183 21.2344C59.7566 22.2926 59.5258 23.5781 59.5258 25.0909C59.5258 26.6463 59.7566 27.9531 60.2183 29.0114C60.687 30.0696 61.3404 30.8686 62.1785 31.4084C63.0166 31.9482 63.986 32.218 65.0869 32.218C65.7048 32.218 66.2765 32.1364 66.8021 31.973C67.3348 31.8097 67.8071 31.5717 68.219 31.2592C68.6309 30.9396 68.9718 30.5526 69.2417 30.098C69.5187 29.6435 69.7105 29.125 69.817 28.5426L74.4832 28.5639C74.3625 29.5653 74.0606 30.5312 73.5777 31.4616C73.1018 32.3849 72.4591 33.2124 71.6494 33.9439C70.8468 34.6683 69.888 35.2436 68.773 35.6697C67.665 36.0888 66.4115 36.2983 65.0123 36.2983C63.0663 36.2983 61.3262 35.858 59.7921 34.9773C58.2652 34.0966 57.0578 32.8217 56.17 31.1527C55.2893 29.4837 54.849 27.4631 54.849 25.0909C54.849 22.7116 55.2964 20.6875 56.1913 19.0185C57.0862 17.3494 58.3007 16.0781 59.8348 15.2045C61.3689 14.3239 63.0947 13.8835 65.0123 13.8835C66.2765 13.8835 67.4484 14.0611 68.5279 14.4162C69.6146 14.7713 70.5769 15.2898 71.415 15.9716C72.2531 16.6463 72.9349 17.4737 73.4605 18.4538C73.9931 19.4339 74.3341 20.5561 74.4832 21.8203ZM82.2442 14.1818V36H77.7059V14.1818H82.2442ZM93.3371 36.3196C91.6538 36.3196 90.205 35.9787 88.9905 35.2969C87.7831 34.608 86.8527 33.6349 86.1993 32.3778C85.5459 31.1136 85.2192 29.6186 85.2192 27.8928C85.2192 26.2095 85.5459 24.7322 86.1993 23.4609C86.8527 22.1896 87.7724 21.1989 88.9585 20.4886C90.1517 19.7784 91.5508 19.4233 93.156 19.4233C94.2355 19.4233 95.2405 19.5973 96.1709 19.9453C97.1084 20.2862 97.9251 20.8011 98.6212 21.4901C99.3243 22.179 99.8712 23.0455 100.262 24.0895C100.652 25.1264 100.848 26.3409 100.848 27.733V28.9794H87.0303V26.1669H96.5757C96.5757 25.5135 96.4337 24.9347 96.1496 24.4304C95.8655 23.9261 95.4713 23.532 94.967 23.2479C94.4699 22.9567 93.891 22.8111 93.2305 22.8111C92.5416 22.8111 91.9308 22.9709 91.3981 23.2905C90.8726 23.603 90.4606 24.0256 90.1624 24.5582C89.8641 25.0838 89.7114 25.6697 89.7043 26.3161V28.9901C89.7043 29.7997 89.8534 30.4993 90.1517 31.0888C90.4571 31.6783 90.8868 32.1328 91.4408 32.4524C91.9947 32.772 92.6517 32.9318 93.4116 32.9318C93.9159 32.9318 94.3776 32.8608 94.7966 32.7188C95.2156 32.5767 95.5743 32.3636 95.8726 32.0795C96.1709 31.7955 96.3981 31.4474 96.5544 31.0355L100.752 31.3125C100.539 32.321 100.102 33.2017 99.4415 33.9545C98.7881 34.7003 97.9429 35.2827 96.906 35.7017C95.8761 36.1136 94.6865 36.3196 93.3371 36.3196ZM108.476 36.3089C107.432 36.3089 106.501 36.1278 105.684 35.7656C104.868 35.3963 104.221 34.853 103.745 34.1357C103.277 33.4112 103.042 32.5092 103.042 31.4297C103.042 30.5206 103.209 29.7571 103.543 29.1392C103.877 28.5213 104.331 28.0241 104.907 27.6477C105.482 27.2713 106.135 26.9872 106.867 26.7955C107.606 26.6037 108.38 26.4688 109.189 26.3906C110.141 26.2912 110.908 26.1989 111.49 26.1136C112.073 26.0213 112.495 25.8864 112.758 25.7088C113.021 25.5312 113.152 25.2685 113.152 24.9205V24.8565C113.152 24.1818 112.939 23.6598 112.513 23.2905C112.094 22.9212 111.498 22.7365 110.723 22.7365C109.907 22.7365 109.257 22.9176 108.774 23.2798C108.291 23.6349 107.971 24.0824 107.815 24.6222L103.618 24.2812C103.831 23.2869 104.25 22.4276 104.875 21.7031C105.5 20.9716 106.306 20.4105 107.293 20.0199C108.287 19.6222 109.438 19.4233 110.745 19.4233C111.654 19.4233 112.524 19.5298 113.355 19.7429C114.193 19.956 114.935 20.2862 115.581 20.7337C116.235 21.1811 116.75 21.7564 117.126 22.4595C117.503 23.1555 117.691 23.9901 117.691 24.9631V36H113.387V33.7308H113.259C112.996 34.2422 112.645 34.6932 112.204 35.0838C111.764 35.4673 111.235 35.7692 110.617 35.9893C109.999 36.2024 109.285 36.3089 108.476 36.3089ZM109.775 33.1768C110.443 33.1768 111.032 33.0455 111.544 32.7827C112.055 32.5128 112.456 32.1506 112.748 31.696C113.039 31.2415 113.184 30.7266 113.184 30.1513V28.4148C113.042 28.5071 112.847 28.5923 112.598 28.6705C112.357 28.7415 112.084 28.8089 111.778 28.8729C111.473 28.9297 111.167 28.983 110.862 29.0327C110.557 29.0753 110.28 29.1143 110.031 29.1499C109.498 29.228 109.033 29.3523 108.635 29.5227C108.238 29.6932 107.929 29.924 107.709 30.2152C107.488 30.4993 107.378 30.8544 107.378 31.2805C107.378 31.8984 107.602 32.3707 108.049 32.6974C108.504 33.017 109.079 33.1768 109.775 33.1768ZM125.75 26.5398V36H121.212V19.6364H125.537V22.5234H125.729C126.091 21.5717 126.698 20.8189 127.55 20.2649C128.403 19.7038 129.436 19.4233 130.651 19.4233C131.787 19.4233 132.778 19.6719 133.623 20.169C134.468 20.6662 135.125 21.3764 135.594 22.2997C136.063 23.2159 136.297 24.3097 136.297 25.581V36H131.759V26.3906C131.766 25.3892 131.51 24.608 130.992 24.0469C130.473 23.4787 129.759 23.1946 128.85 23.1946C128.239 23.1946 127.7 23.326 127.231 23.5888C126.769 23.8516 126.407 24.2351 126.144 24.7393C125.889 25.2365 125.757 25.8366 125.75 26.5398Z" fill="#071830"/>
<path d="M160.009 25.0909C160.009 27.4702 159.558 29.4943 158.656 31.1634C157.761 32.8324 156.539 34.1072 154.991 34.9879C153.45 35.8615 151.717 36.2983 149.792 36.2983C147.853 36.2983 146.113 35.858 144.572 34.9773C143.031 34.0966 141.813 32.8217 140.918 31.1527C140.023 29.4837 139.576 27.4631 139.576 25.0909C139.576 22.7116 140.023 20.6875 140.918 19.0185C141.813 17.3494 143.031 16.0781 144.572 15.2045C146.113 14.3239 147.853 13.8835 149.792 13.8835C151.717 13.8835 153.45 14.3239 154.991 15.2045C156.539 16.0781 157.761 17.3494 158.656 19.0185C159.558 20.6875 160.009 22.7116 160.009 25.0909ZM155.332 25.0909C155.332 23.5497 155.101 22.25 154.639 21.1918C154.185 20.1335 153.542 19.331 152.711 18.7841C151.88 18.2372 150.907 17.9638 149.792 17.9638C148.677 17.9638 147.704 18.2372 146.873 18.7841C146.042 19.331 145.396 20.1335 144.934 21.1918C144.48 22.25 144.252 23.5497 144.252 25.0909C144.252 26.6321 144.48 27.9318 144.934 28.9901C145.396 30.0483 146.042 30.8509 146.873 31.3977C147.704 31.9446 148.677 32.218 149.792 32.218C150.907 32.218 151.88 31.9446 152.711 31.3977C153.542 30.8509 154.185 30.0483 154.639 28.9901C155.101 27.9318 155.332 26.6321 155.332 25.0909ZM170.734 36.3196C169.058 36.3196 167.616 35.9645 166.409 35.2543C165.209 34.5369 164.285 33.5426 163.639 32.2713C163 31 162.68 29.5369 162.68 27.8821C162.68 26.206 163.003 24.7358 163.65 23.4716C164.303 22.2003 165.23 21.2095 166.43 20.4993C167.63 19.782 169.058 19.4233 170.713 19.4233C172.14 19.4233 173.39 19.6825 174.463 20.201C175.535 20.7195 176.384 21.4474 177.009 22.3849C177.634 23.3224 177.978 24.4233 178.042 25.6875H173.76C173.639 24.8707 173.319 24.2138 172.801 23.7166C172.289 23.2124 171.618 22.9602 170.787 22.9602C170.084 22.9602 169.47 23.152 168.944 23.5355C168.426 23.9119 168.021 24.4624 167.73 25.1868C167.439 25.9112 167.293 26.7884 167.293 27.8182C167.293 28.8622 167.435 29.75 167.719 30.4815C168.01 31.2131 168.419 31.7706 168.944 32.1541C169.47 32.5376 170.084 32.7294 170.787 32.7294C171.306 32.7294 171.771 32.6229 172.183 32.4098C172.602 32.1967 172.946 31.8878 173.216 31.483C173.493 31.071 173.674 30.5774 173.76 30.0021H178.042C177.971 31.2521 177.63 32.353 177.02 33.3047C176.416 34.2493 175.581 34.9879 174.516 35.5206C173.451 36.0533 172.19 36.3196 170.734 36.3196ZM188.405 36.3196C186.722 36.3196 185.273 35.9787 184.059 35.2969C182.851 34.608 181.921 33.6349 181.268 32.3778C180.614 31.1136 180.288 29.6186 180.288 27.8928C180.288 26.2095 180.614 24.7322 181.268 23.4609C181.921 22.1896 182.841 21.1989 184.027 20.4886C185.22 19.7784 186.619 19.4233 188.224 19.4233C189.304 19.4233 190.309 19.5973 191.239 19.9453C192.177 20.2862 192.993 20.8011 193.69 21.4901C194.393 22.179 194.94 23.0455 195.33 24.0895C195.721 25.1264 195.916 26.3409 195.916 27.733V28.9794H182.099V26.1669H191.644C191.644 25.5135 191.502 24.9347 191.218 24.4304C190.934 23.9261 190.54 23.532 190.035 23.2479C189.538 22.9567 188.959 22.8111 188.299 22.8111C187.61 22.8111 186.999 22.9709 186.467 23.2905C185.941 23.603 185.529 24.0256 185.231 24.5582C184.932 25.0838 184.78 25.6697 184.773 26.3161V28.9901C184.773 29.7997 184.922 30.4993 185.22 31.0888C185.525 31.6783 185.955 32.1328 186.509 32.4524C187.063 32.772 187.72 32.9318 188.48 32.9318C188.984 32.9318 189.446 32.8608 189.865 32.7188C190.284 32.5767 190.643 32.3636 190.941 32.0795C191.239 31.7955 191.467 31.4474 191.623 31.0355L195.82 31.3125C195.607 32.321 195.17 33.2017 194.51 33.9545C193.856 34.7003 193.011 35.2827 191.974 35.7017C190.944 36.1136 189.755 36.3196 188.405 36.3196ZM203.544 36.3089C202.5 36.3089 201.569 36.1278 200.753 35.7656C199.936 35.3963 199.29 34.853 198.814 34.1357C198.345 33.4112 198.111 32.5092 198.111 31.4297C198.111 30.5206 198.278 29.7571 198.611 29.1392C198.945 28.5213 199.4 28.0241 199.975 27.6477C200.55 27.2713 201.204 26.9872 201.935 26.7955C202.674 26.6037 203.448 26.4688 204.258 26.3906C205.209 26.2912 205.976 26.1989 206.559 26.1136C207.141 26.0213 207.564 25.8864 207.827 25.7088C208.089 25.5312 208.221 25.2685 208.221 24.9205V24.8565C208.221 24.1818 208.008 23.6598 207.582 23.2905C207.163 22.9212 206.566 22.7365 205.792 22.7365C204.975 22.7365 204.325 22.9176 203.842 23.2798C203.359 23.6349 203.04 24.0824 202.883 24.6222L198.686 24.2812C198.899 23.2869 199.318 22.4276 199.943 21.7031C200.568 20.9716 201.374 20.4105 202.361 20.0199C203.356 19.6222 204.506 19.4233 205.813 19.4233C206.722 19.4233 207.592 19.5298 208.423 19.7429C209.261 19.956 210.003 20.2862 210.65 20.7337C211.303 21.1811 211.818 21.7564 212.194 22.4595C212.571 23.1555 212.759 23.9901 212.759 24.9631V36H208.455V33.7308H208.327C208.065 34.2422 207.713 34.6932 207.273 35.0838C206.832 35.4673 206.303 35.7692 205.685 35.9893C205.067 36.2024 204.354 36.3089 203.544 36.3089ZM204.844 33.1768C205.511 33.1768 206.101 33.0455 206.612 32.7827C207.123 32.5128 207.525 32.1506 207.816 31.696C208.107 31.2415 208.253 30.7266 208.253 30.1513V28.4148C208.111 28.5071 207.915 28.5923 207.667 28.6705C207.425 28.7415 207.152 28.8089 206.846 28.8729C206.541 28.9297 206.236 28.983 205.93 29.0327C205.625 29.0753 205.348 29.1143 205.099 29.1499C204.567 29.228 204.101 29.3523 203.704 29.5227C203.306 29.6932 202.997 29.924 202.777 30.2152C202.557 30.4993 202.447 30.8544 202.447 31.2805C202.447 31.8984 202.67 32.3707 203.118 32.6974C203.572 33.017 204.148 33.1768 204.844 33.1768ZM220.818 26.5398V36H216.28V19.6364H220.605V22.5234H220.797C221.159 21.5717 221.767 20.8189 222.619 20.2649C223.471 19.7038 224.505 19.4233 225.719 19.4233C226.855 19.4233 227.846 19.6719 228.691 20.169C229.536 20.6662 230.193 21.3764 230.662 22.2997C231.131 23.2159 231.365 24.3097 231.365 25.581V36H226.827V26.3906C226.834 25.3892 226.578 24.608 226.06 24.0469C225.541 23.4787 224.828 23.1946 223.919 23.1946C223.308 23.1946 222.768 23.326 222.299 23.5888C221.838 23.8516 221.475 24.2351 221.213 24.7393C220.957 25.2365 220.826 25.8366 220.818 26.5398ZM234.942 36V19.6364H239.481V36H234.942ZM237.222 17.527C236.547 17.527 235.968 17.3033 235.486 16.8558C235.01 16.4013 234.772 15.858 234.772 15.2259C234.772 14.6009 235.01 14.0646 235.486 13.6172C235.968 13.1626 236.547 12.9354 237.222 12.9354C237.897 12.9354 238.472 13.1626 238.948 13.6172C239.431 14.0646 239.672 14.6009 239.672 15.2259C239.672 15.858 239.431 16.4013 238.948 16.8558C238.472 17.3033 237.897 17.527 237.222 17.527ZM250.509 36.3196C248.833 36.3196 247.392 35.9645 246.184 35.2543C244.984 34.5369 244.061 33.5426 243.414 32.2713C242.775 31 242.455 29.5369 242.455 27.8821C242.455 26.206 242.779 24.7358 243.425 23.4716C244.078 22.2003 245.005 21.2095 246.206 20.4993C247.406 19.782 248.833 19.4233 250.488 19.4233C251.916 19.4233 253.166 19.6825 254.238 20.201C255.311 20.7195 256.159 21.4474 256.784 22.3849C257.409 23.3224 257.754 24.4233 257.818 25.6875H253.535C253.414 24.8707 253.095 24.2138 252.576 23.7166C252.065 23.2124 251.394 22.9602 250.563 22.9602C249.86 22.9602 249.245 23.152 248.72 23.5355C248.201 23.9119 247.796 24.4624 247.505 25.1868C247.214 25.9112 247.068 26.7884 247.068 27.8182C247.068 28.8622 247.21 29.75 247.495 30.4815C247.786 31.2131 248.194 31.7706 248.72 32.1541C249.245 32.5376 249.86 32.7294 250.563 32.7294C251.081 32.7294 251.546 32.6229 251.958 32.4098C252.377 32.1967 252.722 31.8878 252.992 31.483C253.269 31.071 253.45 30.5774 253.535 30.0021H257.818C257.747 31.2521 257.406 32.353 256.795 33.3047C256.191 34.2493 255.357 34.9879 254.291 35.5206C253.226 36.0533 251.965 36.3196 250.509 36.3196Z" fill="#357CCF"/>
<path fill-rule="evenodd" clip-rule="evenodd" d="M24.1681 0C10.8308 0 0 11.2055 0 25.0045C0 38.8035 10.8308 50.0087 24.1681 50.0087C37.5054 50.0087 48.3362 38.8032 48.3362 25.0045C48.3362 11.2058 37.5054 0 24.1681 0ZM24.1681 2.07476C36.4 2.07476 46.3308 12.3488 46.3308 25.0042C46.3308 37.6593 36.4003 47.9339 24.1681 47.9339C11.9362 47.9339 2.00538 37.6596 2.00538 25.0042C2.00538 12.3491 11.9359 2.07476 24.1681 2.07476Z" fill="#357CCF"/>
<path d="M24.4348 27.3148C27.9887 27.3148 30.8696 24.3342 30.8696 20.6574C30.8696 16.9806 27.9887 14 24.4348 14C20.881 14 18 16.9806 18 20.6574C18 24.3342 20.881 27.3148 24.4348 27.3148Z" fill="#FFEC44"/>
<path fill-rule="evenodd" clip-rule="evenodd" d="M42.9744 22C43.6852 23.8872 44.0025 25.8683 44 27.8625C44 37.8715 35.039 46 24 46C12.9608 46 4 38.0093 4 28C4 24.2943 6.05133 22 8.10261 21C10.5778 21.6212 14.1467 24.1472 16.3077 25C19.742 26.3553 17.8462 25.5 20.9231 27C22.9744 27.5 22.9744 27.5 24.5128 27.5C30.1539 27 29.8739 27.2974 35.7949 25C37.9926 24.1473 40.4993 22.6211 42.9744 22Z" fill="#357CCF"/>
<path d="M9.5 20.5C7 21 5.5 23.5 5 25V31L7.18544 37H40.4733L43 29L42.5 22C42.5 22 38.1562 23.2377 36.3701 23.2377C34.7676 23.2377 35.7295 20 33.4606 20C31.1917 20 28.0064 23.2377 25.9777 23.2377C23.9491 23.2377 25.3356 20 22.6562 20C19.9768 20 18.1813 23.2377 15.14 23.2377C12.0987 23.2377 12 20 9.5 20.5Z" fill="#357CCF"/>
</svg>
